<svg width="166" height="115" viewBox="0 0 166 115" fill="none" xmlns="http://www.w3.org/2000/svg">
<g style="mix-blend-mode:color-dodge">
<path fill-rule="evenodd" clip-rule="evenodd" d="M-52.0106 202.429C-40.2652 219.281 -46.0262 246.286 -26.8028 257.059C-3.00413 270.396 30.2255 281.555 63.7611 267.309C97.2783 253.07 120.267 218.967 130.418 190.269C139.062 165.832 107.133 152.67 112.895 128.404C119.981 98.5614 169.497 69.6554 165.547 42.3251C161.641 15.3051 129.528 -4.34097 94.4692 0.923264C58.6986 6.29444 37.2908 49.6375 2.59677 66.7931C-28.386 82.1136 -69.2947 68.6939 -91.8069 93.0338C-114.004 117.033 -97.9298 144.314 -89.7924 166.683C-83.7917 183.178 -61.9787 188.127 -52.0106 202.429Z" fill="url(#paint0_linear_373_288)"/>
</g>
<defs>
<linearGradient id="paint0_linear_373_288" x1="-1.17295" y1="162.897" x2="143.784" y2="19.9067" gradientUnits="userSpaceOnUse">
<stop offset="0.149038" stop-color="#FFE283"/>
<stop offset="0.735577" stop-color="#E371FA"/>
</linearGradient>
</defs>
</svg>
