<svg width="190" height="131" viewBox="0 0 190 131" fill="none" xmlns="http://www.w3.org/2000/svg">
<g style="mix-blend-mode:color-dodge">
<path fill-rule="evenodd" clip-rule="evenodd" d="M377.323 427.349C349.766 457.491 353.162 511.094 312.883 527.837C263.018 548.565 195.534 563.036 134.747 528.181C73.9943 493.345 39.3087 422.264 27.9052 364.429C18.1952 315.182 83.7374 296.549 79.5537 248.256C74.4085 188.864 -13.085 122.138 2.39862 69.9982C17.7066 18.45 85.4673 -12.7174 151.777 5.05014C219.434 23.1786 248.41 111.835 310.603 152.581C366.143 188.968 449.131 171.77 485.697 223.819C521.75 275.138 482.828 324.569 460.668 366.186C444.326 396.876 400.709 401.768 377.323 427.349Z" fill="url(#paint0_linear_373_287)"/>
</g>
<defs>
<linearGradient id="paint0_linear_373_287" x1="290.321" y1="339.735" x2="48.9441" y2="32.7854" gradientUnits="userSpaceOnUse">
<stop offset="0.149038" stop-color="#FFE283"/>
<stop offset="0.735577" stop-color="#86E9EC"/>
</linearGradient>
</defs>
</svg>
